{
  "accessors": [
    {
      "bufferView": 2,
      "componentType": 5126,
      "count": 65532,
      "max": [
        0.14652200043201447,
        0.03493158146739006,
        0.056099001318216324
      ],
      "min": [
        -0.14645369350910187,
        -0.034974411129951477,
        -0.054551068693399429
      ],
      "type": "VEC3"
    },
    {
      "bufferView": 2,
      "byteOffset": 786384,
      "componentType": 5126,
      "count": 65532,
      "max": [
        0.99998843669891357,
        0.9999997615814209,
        0.99995940923690796
      ],
      "min": [
        -0.99989086389541626,
        -0.99999809265136719,
        -0.99996501207351685
      ],
      "type": "VEC3"
    },
    {
      "bufferView": 3,
      "componentType": 5126,
      "count": 65532,
      "max": [
        0.99999541044235229,
        0.99962598085403442,
        0.99999922513961792,
        1
      ],
      "min": [
        -0.99999439716339111,
        -0.99994003772735596,
        -0.99999779462814331,
        -1
      ],
      "type": "VEC4"
    },
    {
      "bufferView": 1,
      "componentType": 5126,
      "count": 65532,
      "max": [
        0.99802559614181519,
        0.998046875
      ],
      "min": [
        0.001953125,
        0.0076227188110351562
      ],
      "type": "VEC2"
    },
    {
      "bufferView": 1,
      "byteOffset": 524256,
      "componentType": 5126,
      "count": 65532,
      "max": [
        0.99802559614181519,
        0.998046875
      ],
      "min": [
        0.001953125,
        0.0076227188110351562
      ],
      "type": "VEC2"
    },
    {
      "bufferView": 1,
      "byteOffset": 1048512,
      "componentType": 5126,
      "count": 65532,
      "max": [
        0.99802559614181519,
        0.998046875
      ],
      "min": [
        0.001953125,
        0.0076227188110351562
      ],
      "type": "VEC2"
    },
    {
      "bufferView": 0,
      "componentType": 5125,
      "count": 342987,
      "max": [
        65531
      ],
      "min": [
        0
      ],
      "type": "SCALAR"
    },
    {
      "bufferView": 2,
      "byteOffset": 1572768,
      "componentType": 5126,
      "count": 23348,
      "max": [
        0.13864600658416748,
        0.034976031631231308,
        0.055069141089916229
      ],
      "min": [
        -0.14652100205421448,
        -0.030128480866551399,
        -0.056100279092788696
      ],
      "type": "VEC3"
    },
    {
      "bufferView": 2,
      "byteOffset": 1852944,
      "componentType": 5126,
      "count": 23348,
      "max": [
        0.99903595447540283,
        0.9999997615814209,
        0.99960976839065552
      ],
      "min": [
        -0.99993723630905151,
        -0.99995452165603638,
        -0.99995309114456177
      ],
      "type": "VEC3"
    },
    {
      "bufferView": 3,
      "byteOffset": 1048512,
      "componentType": 5126,
      "count": 23348,
      "max": [
        0.99999576807022095,
        0.99971127510070801,
        0.99990564584732056,
        1
      ],
      "min": [
        -0.99953657388687134,
        -0.99992167949676514,
        -0.99996447563171387,
        -1
      ],
      "type": "VEC4"
    },
    {
      "bufferView": 1,
      "byteOffset": 1572768,
      "componentType": 5126,
      "count": 23348,
      "max": [
        0.998046875,
        0.998046875
      ],
      "min": [
        0.001953125,
        0.0081402063369750977
      ],
      "type": "VEC2"
    },
    {
      "bufferView": 1,
      "byteOffset": 1759552,
      "componentType": 5126,
      "count": 23348,
      "max": [
        0.998046875,
        0.998046875
      ],
      "min": [
        0.001953125,
        0.0081402063369750977
      ],
      "type": "VEC2"
    },
    {
      "bufferView": 1,
      "byteOffset": 1946336,
      "componentType": 5126,
      "count": 23348,
      "max": [
        0.998046875,
        0.998046875
      ],
      "min": [
        0.001953125,
        0.0081402063369750977
      ],
      "type": "VEC2"
    },
    {
      "bufferView": 0,
      "byteOffset": 1371948,
      "componentType": 5125,
      "count": 107013,
      "max": [
        23347
      ],
      "min": [
        0
      ],
      "type": "SCALAR"
    }
  ],
  "asset": {
    "extras": {
      "author": "Smithsonian Institution (https://sketchfab.com/Smithsonian)",
      "license": "CC0-1.0 (http://creativecommons.org/publicdomain/zero/1.0/)",
      "source": "https://sketchfab.com/3d-models/egg-carton-from-muslim-farms-34718f6a4bac43cbae72ad80d135c68e",
      "title": "Egg Carton From Muslim Farms"
    },
    "generator": "Sketchfab-7.80.0",
    "version": "2.0"
  },
  "bufferViews": [
    {
      "buffer": 0,
      "byteLength": 1800000,
      "byteOffset": 0,
      "name": "floatBufferViews",
      "target": 34963
    },
    {
      "buffer": 0,
      "byteLength": 2133120,
      "byteOffset": 1800000,
      "byteStride": 8,
      "name": "floatBufferViews",
      "target": 34962
    },
    {
      "buffer": 0,
      "byteLength": 2133120,
      "byteOffset": 3933120,
      "byteStride": 12,
      "name": "floatBufferViews",
      "target": 34962
    },
    {
      "buffer": 0,
      "byteLength": 1422080,
      "byteOffset": 6066240,
      "byteStride": 16,
      "name": "floatBufferViews",
      "target": 34962
    }
  ],
  "buffers": [
    {
      "byteLength": 7488320,
      "uri": "scene.bin"
    }
  ],
  "images": [
    {
      "uri": "textures/default_baseColor.jpeg"
    },
    {
      "uri": "textures/default_metallicRoughness.png"
    },
    {
      "uri": "textures/default_normal.jpeg"
    }
  ],
  "materials": [
    {
      "doubleSided": false,
      "emissiveFactor": [
        0,
        0,
        0
      ],
      "name": "default",
      "normalTexture": {
        "index": 2,
        "scale": 1,
        "texCoord": 2
      },
      "occlusionTexture": {
        "index": 1,
        "strength": 1,
        "texCoord": 1
      },
      "pbrMetallicRoughness": {
        "baseColorFactor": [
          1,
          1,
          1,
          1
        ],
        "baseColorTexture": {
          "index": 0,
          "texCoord": 0
        },
        "metallicFactor": 0.10000000000000001,
        "metallicRoughnessTexture": {
          "index": 1,
          "texCoord": 1
        },
        "roughnessFactor": 0.80000000000000004
      }
    }
  ],
  "meshes": [
    {
      "primitives": [
        {
          "attributes": {
            "NORMAL": 1,
            "POSITION": 0,
            "TANGENT": 2,
            "TEXCOORD_0": 3,
            "TEXCOORD_1": 4,
            "TEXCOORD_2": 5
          },
          "indices": 6,
          "material": 0,
          "mode": 4
        }
      ]
    },
    {
      "primitives": [
        {
          "attributes": {
            "NORMAL": 8,
            "POSITION": 7,
            "TANGENT": 9,
            "TEXCOORD_0": 10,
            "TEXCOORD_1": 11,
            "TEXCOORD_2": 12
          },
          "indices": 13,
          "material": 0,
          "mode": 4
        }
      ]
    }
  ],
  "nodes": [
    {
      "children": [
        1
      ],
      "name": "RootNode (gltf orientation matrix)",
      "rotation": [
        -0.70710678118654746,
        -0,
        -0,
        0.70710678118654757
      ]
    },
    {
      "children": [
        2
      ],
      "name": "RootNode (model correction matrix)"
    },
    {
      "children": [
        3
      ],
      "name": "root"
    },
    {
      "children": [
        4
      ],
      "matrix": [
        1,
        0,
        0,
        0,
        0,
        2.2204460492503131e-16,
        1,
        0,
        0,
        -1,
        2.2204460492503131e-16,
        0,
        0,
        0,
        0,
        1
      ],
      "name": "GLTF_SceneRootNode"
    },
    {
      "children": [
        5,
        6
      ],
      "name": "_0"
    },
    {
      "mesh": 0,
      "name": ""
    },
    {
      "mesh": 1,
      "name": ""
    }
  ],
  "samplers": [
    {
      "magFilter": 9729,
      "minFilter": 9987,
      "wrapS": 10497,
      "wrapT": 10497
    }
  ],
  "scene": 0,
  "scenes": [
    {
      "name": "OSG_Scene",
      "nodes": [
        0
      ]
    }
  ],
  "textures": [
    {
      "sampler": 0,
      "source": 0
    },
    {
      "sampler": 0,
      "source": 1
    },
    {
      "sampler": 0,
      "source": 2
    }
  ]
}

